<svg width="1200" height="520" viewBox="0 0 1200 520" fill="none" xmlns="http://www.w3.org/2000/svg">
  <g fill="white">
    <text x="50%" y="220" text-anchor="middle" font-family="Georgia, 'Times New Roman', serif" font-size="260" letter-spacing="4">EM</text>
    <text x="50%" y="360" text-anchor="middle" font-family="Georgia, 'Times New Roman', serif" font-size="136" letter-spacing="2">RECORDS</text>
  </g>
  <g fill="white" transform="translate(250,400)">
    <rect x="0" y="46" width="20" height="6"/>
    <rect x="30" y="46" width="20" height="6"/>
    <rect x="60" y="44" width="20" height="8"/>
    <rect x="90" y="40" width="20" height="12"/>
    <rect x="120" y="34" width="20" height="18"/>
    <rect x="150" y="28" width="20" height="24"/>
    <rect x="180" y="16" width="20" height="36"/>
    <rect x="210" y="0" width="20" height="52"/>
    <rect x="240" y="0" width="20" height="52"/>
    <rect x="270" y="0" width="20" height="52"/>
    <rect x="300" y="14" width="20" height="38"/>
    <rect x="330" y="4" width="20" height="48"/>
    <rect x="360" y="0" width="20" height="52"/>
    <rect x="390" y="8" width="20" height="44"/>
    <rect x="420" y="20" width="20" height="32"/>
    <rect x="450" y="30" width="20" height="22"/>
    <rect x="480" y="34" width="20" height="18"/>
    <rect x="510" y="38" width="20" height="14"/>
    <rect x="540" y="42" width="20" height="10"/>
    <rect x="570" y="44" width="20" height="8"/>
    <rect x="600" y="46" width="20" height="6"/>
  </g>
</svg>
